<svg width="66" height="45" viewBox="0 0 66 45" fill="none" xmlns="http://www.w3.org/2000/svg">
<rect width="65.1707" height="45" fill="#090909"/>
<path d="M61.2005 6.0777H58.0886V5.16604C58.0886 3.99122 56.4632 3.03885 54.4581 3.03885C53.9187 3.0406 53.387 3.11353 52.9021 3.25218V2.43108C52.9021 1.08844 51.0445 0 48.753 0C46.4614 0 44.6038 1.08844 44.6038 2.43108V6.0777H40.4546V5.46993C40.4621 4.46734 39.0811 3.65095 37.3699 3.64647C36.5926 3.64442 35.8424 3.81368 35.2681 4.12068C34.0954 3.4886 32.2916 3.4886 31.1189 4.12068C29.9462 3.4886 28.1424 3.4886 26.9697 4.12068C25.7055 3.44499 23.7458 3.49772 22.5926 4.23844C22.0688 4.57491 21.7799 5.01448 21.7832 5.46993V6.0777H17.634V2.43108C17.634 1.08844 15.7764 0 13.4849 0C11.1933 0 9.33567 1.08844 9.33567 2.43108V3.25218C8.85087 3.11353 8.31912 3.0406 7.77973 3.03885C5.77463 3.03885 4.14919 3.99122 4.14919 5.16604V6.0777H1.0373C0.46445 6.0777 0 6.34983 0 6.68547V10.3321C0 10.6677 0.46445 10.9399 1.0373 10.9399H4.14919V11.8515C4.14919 13.0263 5.77463 13.9787 7.77973 13.9787C8.31912 13.977 8.85087 13.904 9.33567 13.7654V14.5865C9.33567 15.9291 11.1933 17.0176 13.4849 17.0176C15.7764 17.0176 17.634 15.9291 17.634 14.5865V10.9399H19.7086V12.9716C19.7053 13.7779 20.2524 14.5515 21.2283 15.1201L23.8578 16.6614L23.2073 26.3805H28.4817L25.9324 16.4098C25.9324 16.2486 25.823 16.094 25.6285 15.9801L22.695 14.2607C22.113 13.9182 21.7853 13.455 21.7832 12.9716V9.11655H27.8587C28.2514 9.11343 28.6236 9.21911 28.8628 9.40159C28.8701 9.40767 28.8783 9.41375 28.8856 9.42043C28.9301 9.46191 28.965 9.50666 28.9893 9.55353C29.0089 9.59099 29.0221 9.62943 29.0288 9.6684C29.036 9.70654 29.036 9.74513 29.0288 9.78327C29.0264 9.80371 29.0219 9.82399 29.0153 9.84405C28.9918 9.90809 28.9515 9.96955 28.896 10.0264C28.7151 10.2146 28.3756 10.3313 28.007 10.3321H24.8951C24.3223 10.3321 23.8578 10.6042 23.8578 10.9399V12.1554C23.8577 12.4171 24.1436 12.6494 24.5673 12.7322L26.8494 13.1789C28.702 13.5393 30.0816 15.1821 30.0816 16.4098H32.1562C32.1562 14.7378 30.3804 12.5857 27.5102 12.0253L25.9324 11.7172V11.5476H28.007C28.88 11.5427 29.7088 11.322 30.2891 10.9399H39.4173V13.1685C39.416 13.5629 39.1978 13.9466 38.7949 14.2625L36.5129 16.0451C36.3781 16.1503 36.3054 16.2783 36.3054 16.4098L34.5721 26.3805H39.4173L38.38 16.6122L40.4546 14.9919C41.126 14.4653 41.4898 13.8259 41.4919 13.1685V10.9399H44.6038V14.5865C44.6038 15.9291 46.4614 17.0176 48.753 17.0176C51.0445 17.0176 52.9021 15.9291 52.9021 14.5865V13.7654C53.387 13.904 53.9187 13.977 54.4581 13.9787C56.4632 13.9787 58.0886 13.0263 58.0886 11.8515V10.9399H61.2005C61.7734 10.9399 62.2378 10.6677 62.2378 10.3321V6.68547C62.2378 6.34983 61.7734 6.0777 61.2005 6.0777ZM4.14919 9.72432H2.07459V7.29324H4.14919V9.72432ZM9.33567 11.8515C9.33567 12.355 8.639 12.7632 7.77973 12.7632C6.92046 12.7632 6.22378 12.355 6.22378 11.8515V5.16604C6.22378 4.66258 6.92046 4.25439 7.77973 4.25439C8.639 4.25439 9.33567 4.66258 9.33567 5.16604V11.8515ZM15.5595 14.5865C15.5595 15.2578 14.6307 15.802 13.4849 15.802C12.339 15.802 11.4103 15.2578 11.4103 14.5865V2.43108C11.4103 1.75972 12.339 1.21554 13.4849 1.21554C14.6307 1.21554 15.5595 1.75972 15.5595 2.43108V14.5865ZM20.7459 7.90101C20.1731 7.90101 19.7086 8.17314 19.7086 8.50878V9.72432H17.634V7.29324H21.7832C21.7844 7.40811 21.8041 7.52275 21.8424 7.63541C21.8538 7.67127 21.8735 7.70409 21.888 7.73873C21.9119 7.79283 21.9295 7.84874 21.9606 7.90101H20.7459ZM25.9324 7.29324C25.9324 7.62888 25.468 7.90101 24.8951 7.90101C24.3223 7.90101 23.8578 7.62888 23.8578 7.29324V5.46993C23.8578 5.13429 24.3223 4.86216 24.8951 4.86216C25.468 4.86216 25.9324 5.13429 25.9324 5.46993V7.29324ZM30.0816 7.29324C30.0816 7.62888 29.6172 7.90101 29.0443 7.90101C28.4715 7.90101 28.007 7.62888 28.007 7.29324V5.46993C28.007 5.13429 28.4715 4.86216 29.0443 4.86216C29.6172 4.86216 30.0816 5.13429 30.0816 5.46993V7.29324ZM36.3054 5.46993C36.3054 5.13429 36.7698 4.86216 37.3427 4.86216C37.9155 4.86216 38.38 5.13429 38.38 5.46993V7.29324C38.38 7.62888 37.9155 7.90101 37.3427 7.90101C36.7698 7.90101 36.3054 7.62888 36.3054 7.29324V5.46993ZM32.1562 5.46993C32.1562 5.13429 32.6207 4.86216 33.1935 4.86216C33.7663 4.86216 34.2308 5.13429 34.2308 5.46993V7.29324C34.2308 7.62888 33.7663 7.90101 33.1935 7.90101C32.6207 7.90101 32.1562 7.62888 32.1562 7.29324V5.46993ZM44.6038 9.72432H31.1189C31.1189 9.71824 31.1189 9.71338 31.1189 9.7073C31.118 9.58643 31.0965 9.46586 31.0546 9.3475C31.0484 9.33109 31.0349 9.3159 31.0287 9.29888C31.01 9.25451 30.983 9.21318 30.9592 9.17003C30.9153 9.09216 30.8623 9.01627 30.8005 8.94273C30.7704 8.90626 30.7559 8.86493 30.7216 8.82968C30.7334 8.82497 30.7448 8.81988 30.7559 8.81449C30.8036 8.79625 30.8451 8.77437 30.8907 8.75371C30.9685 8.71968 31.0504 8.68807 31.1231 8.64978C31.1832 8.68139 31.2527 8.7063 31.317 8.73487C31.3813 8.76343 31.4446 8.79565 31.5141 8.82117C31.612 8.85658 31.7132 8.88886 31.817 8.91781C31.8875 8.93786 31.9539 8.96157 32.0245 8.97859C32.1456 9.00578 32.2697 9.02835 32.3958 9.04605C32.4612 9.05638 32.5224 9.07097 32.5898 9.07887C32.9888 9.12665 33.4002 9.12665 33.7993 9.07887C33.8667 9.07097 33.9279 9.05638 33.9933 9.04605C34.1194 9.02835 34.2435 9.00578 34.3646 8.97859C34.4383 8.96096 34.5046 8.93726 34.5721 8.91781C34.6763 8.88886 34.7777 8.85658 34.876 8.82117C34.9445 8.79443 35.0067 8.76404 35.072 8.73487C35.1374 8.7057 35.2059 8.68139 35.266 8.64978C35.3262 8.68139 35.3957 8.7063 35.46 8.73487C35.5243 8.76343 35.5876 8.79565 35.6571 8.82117C35.755 8.85658 35.8561 8.88886 35.96 8.91781C36.0305 8.93786 36.0969 8.96157 36.1674 8.97859C36.2885 9.00578 36.4126 9.02835 36.5388 9.04605C36.6041 9.05638 36.6653 9.07097 36.7328 9.07887C38.4125 9.2789 40.0509 8.64325 40.3923 7.65912C40.4341 7.5387 40.455 7.41616 40.4546 7.29324H44.6038V9.72432ZM50.8275 14.5865C50.8275 15.2578 49.8988 15.802 48.753 15.802C47.6071 15.802 46.6784 15.2578 46.6784 14.5865V2.43108C46.6784 1.75972 47.6071 1.21554 48.753 1.21554C49.8988 1.21554 50.8275 1.75972 50.8275 2.43108V14.5865ZM56.014 11.8515C56.014 12.355 55.3174 12.7632 54.4581 12.7632C53.5988 12.7632 52.9021 12.355 52.9021 11.8515V5.16604C52.9021 4.66258 53.5988 4.25439 54.4581 4.25439C55.3174 4.25439 56.014 4.66258 56.014 5.16604V11.8515ZM60.1632 9.72432H58.0886V7.29324H60.1632V9.72432Z" fill="white"/>
<path d="M5.83199 27.992H9.03199V39H5.83199V27.992ZM9.70399 27.992H13.448V30.44H9.70399V27.992ZM9.70399 32.536H12.856V34.984H9.70399V32.536ZM15.0507 27.992H18.2507V39H15.0507V27.992ZM19.436 27.992H28.444V30.552H19.436V27.992ZM22.332 31.192H25.532V39H22.332V31.192Z" fill="#F5F5F5"/>
<path d="M29.6289 27.992H32.8289V39H29.6289V27.992ZM35.8049 34.76H33.5009V32.2H35.8049V27.992H39.0049V39H35.8049V34.76ZM45.562 39.128C44.442 39.128 43.578 39.0373 42.97 38.856C42.362 38.6747 41.914 38.3813 41.626 37.976C41.3593 37.6027 41.194 37.128 41.13 36.552C41.066 35.976 41.034 35.1173 41.034 33.976V27.992H44.234V34.616C44.234 35.0107 44.2447 35.3893 44.266 35.752C44.2873 36.04 44.3353 36.248 44.41 36.376C44.4847 36.504 44.6127 36.584 44.794 36.616C44.954 36.6587 45.21 36.68 45.562 36.68H45.93C46.0153 36.68 46.1113 36.6693 46.218 36.648V39.112C46.1433 39.1227 46.0367 39.128 45.898 39.128H45.562ZM46.89 27.992H50.09V33.976C50.09 35.0213 50.0687 35.8107 50.026 36.344C49.9833 36.8773 49.866 37.3253 49.674 37.688C49.4607 38.104 49.1353 38.424 48.698 38.648C48.2607 38.872 47.658 39.016 46.89 39.08V27.992ZM52.1289 27.992H55.3289V39H52.1289V27.992ZM56.0009 36.552H56.6569C56.9555 36.552 57.1795 36.5467 57.3289 36.536C57.4889 36.5147 57.6062 36.472 57.6809 36.408C57.7555 36.344 57.8035 36.2533 57.8249 36.136C57.8569 36.0187 57.8729 35.848 57.8729 35.624C57.8729 35.3893 57.8569 35.2133 57.8249 35.096C57.8035 34.9787 57.7555 34.888 57.6809 34.824C57.5529 34.7173 57.2115 34.664 56.6569 34.664H56.0009V32.216H56.5609C56.8595 32.216 57.0835 32.2107 57.2329 32.2C57.3929 32.1787 57.5102 32.136 57.5849 32.072C57.6595 32.008 57.7075 31.9227 57.7289 31.816C57.7609 31.6987 57.7769 31.5387 57.7769 31.336C57.7769 31.1227 57.7609 30.9627 57.7289 30.856C57.7075 30.7387 57.6595 30.648 57.5849 30.584C57.5102 30.52 57.3929 30.4827 57.2329 30.472C57.0835 30.4507 56.8595 30.44 56.5609 30.44H56.0009V27.992H57.8249C59.9689 27.992 61.0409 28.9147 61.0409 30.76C61.0409 31.5387 60.8862 32.1253 60.5769 32.52C60.2782 32.9147 59.7982 33.192 59.1369 33.352V33.416C59.8302 33.576 60.3262 33.8267 60.6249 34.168C60.9662 34.5733 61.1369 35.2027 61.1369 36.056C61.1369 37.0373 60.8755 37.7733 60.3529 38.264C59.8302 38.7547 58.9929 39 57.8409 39H56.0009V36.552Z" fill="#DC0000"/>
</svg>
