<svg width="84" height="84" viewBox="0 0 84 84" fill="none" xmlns="http://www.w3.org/2000/svg">
<path fill-rule="evenodd" clip-rule="evenodd" d="M64.3859 0.0691663C59.8918 -0.218276 55.3856 0.392076 51.1264 1.86512C46.8673 3.33817 42.9392 5.64484 39.5682 8.6525C35.1285 13.1247 30.7303 17.5831 26.3734 22.0275C21.3685 21.4858 9.49728 21.1942 1.55559 29.2775C0.785199 30.0582 0.352783 31.1142 0.352783 32.215C0.352783 33.3158 0.785199 34.3718 1.55559 35.1525L48.2957 82.3192C49.0707 83.0952 50.1191 83.5308 51.2118 83.5308C52.3046 83.5308 53.3529 83.0952 54.1279 82.3192C62.1937 73.9858 61.9455 62.2358 61.4492 57.3192L74.7267 43.9858C87.9215 30.6942 81.9239 5.73583 81.6757 4.69417C81.4847 3.94264 81.0893 3.25975 80.5339 2.72236C79.9785 2.18498 79.2852 1.81445 78.5321 1.6525C73.8884 0.604868 69.1446 0.0739095 64.3859 0.0691663ZM54.0452 52.8608C53.5683 53.3459 53.2171 53.9416 53.0223 54.5955C52.8276 55.2494 52.7953 55.9414 52.9284 56.6108C53.8219 62.185 53.0442 67.901 50.6948 73.0275L10.6968 32.6525C15.8666 30.2557 21.6456 29.528 27.242 30.5692C27.9041 30.656 28.5773 30.5801 29.2039 30.3479C29.8306 30.1157 30.3921 29.7342 30.8406 29.2358C30.8406 29.2358 36.6314 23.1942 45.359 14.4025C50.7255 10.0613 57.52 7.91873 64.3859 8.4025C67.6155 8.41862 70.8385 8.6973 74.0235 9.23583C75.0162 15.1942 76.588 30.2358 68.7704 38.1108L54.0452 52.8608Z" fill="black"/>
</svg>
