<svg width="84" height="84" viewBox="0 0 84 84" fill="none" xmlns="http://www.w3.org/2000/svg">
<path fill-rule="evenodd" clip-rule="evenodd" d="M56.8825 43.671C60.761 47.578 62.94 52.8771 62.94 58.4024V83.4024H54.6674V58.4024C54.6675 55.214 53.4582 52.1461 51.2868 49.8263C49.1154 47.5066 46.1461 46.1103 42.9865 45.9233L42.2585 45.9024C39.0933 45.9022 36.0478 47.1204 33.7449 49.3078C31.442 51.4951 30.056 54.4862 29.8703 57.6691L29.8496 58.4024V83.4024H21.577V58.4024C21.577 52.8771 23.7559 47.578 27.6345 43.671C31.513 39.764 36.7734 37.5691 42.2585 37.5691C47.7435 37.5691 53.004 39.764 56.8825 43.671ZM18.7229 50.4608C18.0157 52.5816 17.5969 54.7892 17.4779 57.0233L17.4407 58.4024V58.7608C16.9652 58.5894 16.4707 58.4774 15.9682 58.4274L15.3725 58.4024C13.8302 58.4025 12.3432 58.9813 11.2014 60.0258C10.0597 61.0704 9.34512 62.5059 9.19705 64.0524L9.1681 64.6524V83.4024H0.895508V64.6524C0.895508 60.7847 2.42076 57.0754 5.13573 54.3405C7.8507 51.6055 11.533 50.0691 15.3725 50.0691C16.5266 50.0691 17.6475 50.2066 18.7229 50.4608ZM79.3812 54.3405C82.0962 57.0754 83.6214 60.7847 83.6214 64.6524V83.4024H75.3488V64.6524C75.3488 63.0987 74.7742 61.6008 73.7373 60.4507C72.7003 59.3006 71.2752 58.5807 69.74 58.4316L69.1444 58.4024C68.4205 58.4024 67.7256 58.5274 67.0762 58.7566V58.4024C67.0762 55.6274 66.6295 52.9608 65.7981 50.4691C66.8938 50.2019 68.0171 50.0676 69.1444 50.0691C72.9839 50.0691 76.6662 51.6055 79.3812 54.3405ZM22.6846 28.1201C24.6238 30.0736 25.7133 32.7231 25.7133 35.4858C25.7133 38.2484 24.6238 40.8979 22.6846 42.8515C20.7453 44.805 18.1151 45.9024 15.3725 45.9024C12.63 45.9024 9.9998 44.805 8.06054 42.8515C6.12127 40.8979 5.0318 38.2484 5.0318 35.4858C5.0318 32.7231 6.12127 30.0736 8.06054 28.1201C9.9998 26.1666 12.63 25.0691 15.3725 25.0691C18.1151 25.0691 20.7453 26.1666 22.6846 28.1201ZM76.4564 28.1201C78.3957 30.0736 79.4851 32.7231 79.4851 35.4858C79.4851 38.2484 78.3957 40.8979 76.4564 42.8515C74.5171 44.805 71.8869 45.9024 69.1444 45.9024C66.4019 45.9024 63.7717 44.805 61.8324 42.8515C59.8931 40.8979 58.8037 38.2484 58.8037 35.4858C58.8037 32.7231 59.8931 30.0736 61.8324 28.1201C63.7717 26.1666 66.4019 25.0691 69.1444 25.0691C71.8869 25.0691 74.5171 26.1666 76.4564 28.1201ZM13.9101 34.0126C13.5223 34.4033 13.3044 34.9332 13.3044 35.4858C13.3044 36.0383 13.5223 36.5682 13.9101 36.9589C14.298 37.3496 14.824 37.5691 15.3725 37.5691C15.9211 37.5691 16.4471 37.3496 16.8349 36.9589C17.2228 36.5682 17.4407 36.0383 17.4407 35.4858C17.4407 34.9332 17.2228 34.4033 16.8349 34.0126C16.4471 33.6219 15.9211 33.4024 15.3725 33.4024C14.824 33.4024 14.298 33.6219 13.9101 34.0126ZM67.682 34.0126C67.2941 34.4033 67.0762 34.9332 67.0762 35.4858C67.0762 36.0383 67.2941 36.5682 67.682 36.9589C68.0698 37.3496 68.5959 37.5691 69.1444 37.5691C69.6929 37.5691 70.2189 37.3496 70.6068 36.9589C70.9947 36.5682 71.2125 36.0383 71.2125 35.4858C71.2125 34.9332 70.9947 34.4033 70.6068 34.0126C70.2189 33.6219 69.6929 33.4024 69.1444 33.4024C68.5959 33.4024 68.0698 33.6219 67.682 34.0126ZM53.9577 4.95065C57.0605 8.07625 58.8037 12.3155 58.8037 16.7358C58.8037 21.156 57.0605 25.3953 53.9577 28.5209C50.8549 31.6465 46.6465 33.4024 42.2585 33.4024C37.8704 33.4024 33.6621 31.6465 30.5593 28.5209C27.4564 25.3953 25.7133 21.156 25.7133 16.7358C25.7133 12.3155 27.4564 8.07625 30.5593 4.95065C33.6621 1.82504 37.8704 0.0690918 42.2585 0.0690918C46.6465 0.0690918 50.8549 1.82504 53.9577 4.95065ZM36.4089 10.8432C34.8575 12.406 33.9859 14.5256 33.9859 16.7358C33.9859 18.9459 34.8575 21.0655 36.4089 22.6283C37.9603 24.1911 40.0644 25.0691 42.2585 25.0691C44.4525 25.0691 46.5567 24.1911 48.1081 22.6283C49.6595 21.0655 50.5311 18.9459 50.5311 16.7358C50.5311 14.5256 49.6595 12.406 48.1081 10.8432C46.5567 9.2804 44.4525 8.40242 42.2585 8.40242C40.0644 8.40242 37.9603 9.2804 36.4089 10.8432Z" fill="black"/>
</svg>
