<svg width="83" height="77" viewBox="0 0 83 77" fill="none" xmlns="http://www.w3.org/2000/svg">
<path fill-rule="evenodd" clip-rule="evenodd" d="M8.09841 68.814V1.78271C8.09841 1.31006 7.71451 0.92334 7.2453 0.92334H1.27352C0.80431 0.92334 0.42041 1.31006 0.42041 1.78271V75.689C0.42041 76.1616 0.80431 76.5483 1.27352 76.5483H81.466C81.9352 76.5483 82.3191 76.1616 82.3191 75.689V69.6733C82.3191 69.2007 81.9352 68.814 81.466 68.814H8.09841ZM20.5858 52.2388L35.334 37.4575L48.9411 51.2505C49.2717 51.5835 49.8155 51.5835 50.1461 51.2505L79.5145 21.6772C79.8451 21.3442 79.8451 20.7964 79.5145 20.4634L75.2916 16.2095C75.1312 16.0495 74.9147 15.9598 74.6891 15.9598C74.4634 15.9598 74.2469 16.0495 74.0866 16.2095L49.5596 40.9058L35.9738 27.1343C35.8135 26.9743 35.597 26.8846 35.3713 26.8846C35.1457 26.8846 34.9291 26.9743 34.7688 27.1343L15.1686 46.7603C15.0098 46.9218 14.9207 47.1399 14.9207 47.3672C14.9207 47.5945 15.0098 47.8126 15.1686 47.9741L19.3808 52.2388C19.7114 52.5718 20.2446 52.5718 20.5858 52.2388Z" fill="black"/>
</svg>
